{"accessors" : [{"bufferView" : 0, "byteOffset" : 0, "componentType" : 5123, "count" : 15867, "type" : "SCALAR", "max" : [12666], "min" : [0]}, {"bufferView" : 1, "byteOffset" : 0, "componentType" : 5126, "count" : 12667, "type" : "VEC3", "max" : [111.06109619140625, 273.3554992675781, 76.84230041503906], "min" : [-111.69080352783203, -332.15301513671875, -43.73619842529297], "name" : "POSITION"}, {"bufferView" : 1, "byteOffset" : 12, "componentType" : 5126, "count" : 12667, "type" : "VEC2", "max" : [0.9973999857902527, 0.9983999729156494], "min" : [0.0031999999191612005, -1.065999984741211], "name" : "TEXCOORD_0"}], "asset" : {"generator" : "Aspose.3D 23.11.1", "version" : "2.0"}, "buffers" : [{"uri" : "data:application/octet-stream;base64,", "byteLength" : 349084}], "bufferViews" : [{"buffer" : 0, "byteOffset" : 0, "byteLength" : 31736, "target" : 34963}, {"buffer" : 0, "byteOffset" : 31740, "byteLength" : 317340, "byteStride" : 20, "target" : 34962}], "meshes" : [{"primitives" : [{"attributes" : {"POSITION" : 1, "TEXCOORD_0" : 2}, "indices" : 0, "mode" : 4}], "name" : "Mesh_0666mesh"}], "nodes" : [{"mesh" : 0, "name" : "Mesh_0666"}], "scene" : 0, "scenes" : [{"nodes" : [0]}]}